<!DOCTYPE svg PUBLIC "-//W3C//DTD SVG 1.1//EN" "http://www.w3.org/Graphics/SVG/1.1/DTD/svg11.dtd">
<!-- Uploaded to: SVG Repo, www.svgrepo.com, Transformed by: SVG Repo Mixer Tools -->
<svg width="800px" height="800px" viewBox="0 0 32 32" xmlns="http://www.w3.org/2000/svg" xmlns:xlink="http://www.w3.org/1999/xlink" fill="#000000">
<g id="SVGRepo_bgCarrier" stroke-width="0"/>
<g id="SVGRepo_tracerCarrier" stroke-linecap="round" stroke-linejoin="round"/>
<g id="SVGRepo_iconCarrier"> <defs> <clipPath id="clip-pointer"> <rect width="32" height="32"/> </clipPath> </defs> <g id="pointer" clip-path="url(#clip-pointer)"> <g id="Group_2341" data-name="Group 2341" transform="translate(-416 -260)"> <g id="Group_2340" data-name="Group 2340"> <g id="Group_2339" data-name="Group 2339"> <path id="Path_3839" data-name="Path 3839" d="M442.485,279.1a2.963,2.963,0,0,0-.4-3.687,2.917,2.917,0,0,0-1.334-.755,3.238,3.238,0,0,0-.733-3.431,3.1,3.1,0,0,0-1.288-.754l4.6-4.6a3.44,3.44,0,1,0-4.865-4.864l-8.978,8.978a5.419,5.419,0,0,0-3.292.09,11.01,11.01,0,0,0-5.9,6.239,12.163,12.163,0,0,0,.758,9.429,10.684,10.684,0,0,0,6.544,5.92,8.835,8.835,0,0,0,7.174-1.076,52.474,52.474,0,0,0,8.1-6.979,2.957,2.957,0,0,0,0-4.185A3,3,0,0,0,442.485,279.1Zm-.931,3.233a51.5,51.5,0,0,1-7.777,6.712,7.007,7.007,0,0,1-5.683.854,8.648,8.648,0,0,1-5.389-4.952,10.341,10.341,0,0,1-.683-8.007,9.158,9.158,0,0,1,4.895-5.173,2.549,2.549,0,0,1,.945-.155l-2.445,2.445a.919.919,0,0,0,1.3,1.3l3.688-3.689,0,0,9.355-9.354a1.6,1.6,0,0,1,2.267,2.267l-7.98,7.98a.918.918,0,0,0,1.3,1.3l1.216-1.215a.87.87,0,0,0,.172-.114,1.435,1.435,0,0,1,1.982,0,1.415,1.415,0,0,1-.028,2.015l-.878.962a.918.918,0,1,0,1.357,1.237l.02-.021.01-.007a1.123,1.123,0,0,1,1.665,1.5l-.812.436a2.95,2.95,0,0,0-1.364.778.919.919,0,0,0,1.085,1.458l.9-.483a1.124,1.124,0,0,1,1.232,1.117A1.134,1.134,0,0,1,441.554,282.332Z" fill="#CACACA"/> </g> </g> </g> </g> </g>
</svg>